solid box
  facet normal 0.000000 0.000000 1.000000
    outer loop
      vertex -0.250000 -0.040000 -0.175000
      vertex 0.250000 -0.040000 -0.175000
      vertex 0.250000 0.040000 -0.175000
    endloop
  endfacet
  facet normal 0.000000 0.000000 1.000000
    outer loop
      vertex -0.250000 -0.040000 -0.175000
      vertex 0.250000 0.040000 -0.175000
      vertex -0.250000 0.040000 -0.175000
    endloop
  endfacet
  facet normal 0.000000 0.000000 -1.000000
    outer loop
      vertex -0.250000 -0.040000 0.175000
      vertex 0.250000 0.040000 0.175000
      vertex 0.250000 -0.040000 0.175000
    endloop
  endfacet
  facet normal 0.000000 0.000000 -1.000000
    outer loop
      vertex -0.250000 -0.040000 0.175000
      vertex -0.250000 0.040000 0.175000
      vertex 0.250000 0.040000 0.175000
    endloop
  endfacet
  facet normal 0.000000 1.000000 0.000000
    outer loop
      vertex -0.250000 -0.040000 -0.175000
      vertex -0.250000 -0.040000 0.175000
      vertex 0.250000 -0.040000 0.175000
    endloop
  endfacet
  facet normal 0.000000 1.000000 0.000000
    outer loop
      vertex -0.250000 -0.040000 -0.175000
      vertex 0.250000 -0.040000 0.175000
      vertex 0.250000 -0.040000 -0.175000
    endloop
  endfacet
  facet normal 0.000000 -1.000000 0.000000
    outer loop
      vertex 0.250000 0.040000 -0.175000
      vertex 0.250000 0.040000 0.175000
      vertex -0.250000 0.040000 0.175000
    endloop
  endfacet
  facet normal 0.000000 -1.000000 0.000000
    outer loop
      vertex 0.250000 0.040000 -0.175000
      vertex -0.250000 0.040000 0.175000
      vertex -0.250000 0.040000 -0.175000
    endloop
  endfacet
  facet normal 1.000000 0.000000 0.000000
    outer loop
      vertex -0.250000 -0.040000 -0.175000
      vertex -0.250000 0.040000 -0.175000
      vertex -0.250000 0.040000 0.175000
    endloop
  endfacet
  facet normal 1.000000 0.000000 0.000000
    outer loop
      vertex -0.250000 -0.040000 -0.175000
      vertex -0.250000 0.040000 0.175000
      vertex -0.250000 -0.040000 0.175000
    endloop
  endfacet
  facet normal -1.000000 0.000000 0.000000
    outer loop
      vertex 0.250000 -0.040000 -0.175000
      vertex 0.250000 -0.040000 0.175000
      vertex 0.250000 0.040000 0.175000
    endloop
  endfacet
  facet normal -1.000000 0.000000 0.000000
    outer loop
      vertex 0.250000 -0.040000 -0.175000
      vertex 0.250000 0.040000 0.175000
      vertex 0.250000 0.040000 -0.175000
    endloop
  endfacet
endsolid box
