solid cylinder
  facet normal 0.000000 0.000000 1.000000
    outer loop
      vertex 0.000000 0.000000 -0.030000
      vertex 0.040000 0.000000 -0.030000
      vertex 0.028284 0.028284 -0.030000
    endloop
  endfacet
  facet normal 0.000000 0.000000 1.000000
    outer loop
      vertex 0.000000 0.000000 -0.030000
      vertex 0.028284 0.028284 -0.030000
      vertex 0.000000 0.040000 -0.030000
    endloop
  endfacet
  facet normal 0.000000 -0.000000 1.000000
    outer loop
      vertex 0.000000 0.000000 -0.030000
      vertex 0.000000 0.040000 -0.030000
      vertex -0.028284 0.028284 -0.030000
    endloop
  endfacet
  facet normal 0.000000 0.000000 1.000000
    outer loop
      vertex 0.000000 0.000000 -0.030000
      vertex -0.028284 0.028284 -0.030000
      vertex -0.040000 0.000000 -0.030000
    endloop
  endfacet
  facet normal 0.000000 0.000000 1.000000
    outer loop
      vertex 0.000000 0.000000 -0.030000
      vertex -0.040000 0.000000 -0.030000
      vertex -0.028284 -0.028284 -0.030000
    endloop
  endfacet
  facet normal 0.000000 0.000000 1.000000
    outer loop
      vertex 0.000000 0.000000 -0.030000
      vertex -0.028284 -0.028284 -0.030000
      vertex -0.000000 -0.040000 -0.030000
    endloop
  endfacet
  facet normal 0.000000 0.000000 1.000000
    outer loop
      vertex 0.000000 0.000000 -0.030000
      vertex -0.000000 -0.040000 -0.030000
      vertex 0.028284 -0.028284 -0.030000
    endloop
  endfacet
  facet normal -0.000000 0.000000 1.000000
    outer loop
      vertex 0.000000 0.000000 -0.030000
      vertex 0.028284 -0.028284 -0.030000
      vertex 0.040000 0.000000 -0.030000
    endloop
  endfacet
  facet normal 0.000000 0.000000 -1.000000
    outer loop
      vertex 0.000000 0.000000 0.030000
      vertex 0.028284 0.028284 0.030000
      vertex 0.040000 0.000000 0.030000
    endloop
  endfacet
  facet normal 0.000000 0.000000 -1.000000
    outer loop
      vertex 0.000000 0.000000 0.030000
      vertex 0.000000 0.040000 0.030000
      vertex 0.028284 0.028284 0.030000
    endloop
  endfacet
  facet normal 0.000000 0.000000 -1.000000
    outer loop
      vertex 0.000000 0.000000 0.030000
      vertex -0.028284 0.028284 0.030000
      vertex 0.000000 0.040000 0.030000
    endloop
  endfacet
  facet normal 0.000000 0.000000 -1.000000
    outer loop
      vertex 0.000000 0.000000 0.030000
      vertex -0.040000 0.000000 0.030000
      vertex -0.028284 0.028284 0.030000
    endloop
  endfacet
  facet normal -0.000000 0.000000 -1.000000
    outer loop
      vertex 0.000000 0.000000 0.030000
      vertex -0.028284 -0.028284 0.030000
      vertex -0.040000 0.000000 0.030000
    endloop
  endfacet
  facet normal 0.000000 0.000000 -1.000000
    outer loop
      vertex 0.000000 0.000000 0.030000
      vertex -0.000000 -0.040000 0.030000
      vertex -0.028284 -0.028284 0.030000
    endloop
  endfacet
  facet normal 0.000000 -0.000000 -1.000000
    outer loop
      vertex 0.000000 0.000000 0.030000
      vertex 0.028284 -0.028284 0.030000
      vertex -0.000000 -0.040000 0.030000
    endloop
  endfacet
  facet normal 0.000000 0.000000 -1.000000
    outer loop
      vertex 0.000000 0.000000 0.030000
      vertex 0.040000 0.000000 0.030000
      vertex 0.028284 -0.028284 0.030000
    endloop
  endfacet
  facet normal 0.923880 0.382683 -0.000000
    outer loop
      vertex 0.040000 0.000000 -0.030000
      vertex 0.028284 0.028284 -0.030000
      vertex 0.040000 0.000000 0.030000
    endloop
  endfacet
  facet normal 0.923880 0.382683 -0.000000
    outer loop
      vertex 0.028284 0.028284 -0.030000
      vertex 0.028284 0.028284 0.030000
      vertex 0.040000 0.000000 0.030000
    endloop
  endfacet
  facet normal 0.382683 0.923880 -0.000000
    outer loop
      vertex 0.028284 0.028284 -0.030000
      vertex 0.000000 0.040000 -0.030000
      vertex 0.028284 0.028284 0.030000
    endloop
  endfacet
  facet normal 0.382683 0.923880 -0.000000
    outer loop
      vertex 0.000000 0.040000 -0.030000
      vertex 0.000000 0.040000 0.030000
      vertex 0.028284 0.028284 0.030000
    endloop
  endfacet
  facet normal -0.382683 0.923880 0.000000
    outer loop
      vertex 0.000000 0.040000 -0.030000
      vertex -0.028284 0.028284 -0.030000
      vertex 0.000000 0.040000 0.030000
    endloop
  endfacet
  facet normal -0.382683 0.923880 0.000000
    outer loop
      vertex -0.028284 0.028284 -0.030000
      vertex -0.028284 0.028284 0.030000
      vertex 0.000000 0.040000 0.030000
    endloop
  endfacet
  facet normal -0.923880 0.382683 0.000000
    outer loop
      vertex -0.028284 0.028284 -0.030000
      vertex -0.040000 0.000000 -0.030000
      vertex -0.028284 0.028284 0.030000
    endloop
  endfacet
  facet normal -0.923880 0.382683 0.000000
    outer loop
      vertex -0.040000 0.000000 -0.030000
      vertex -0.040000 0.000000 0.030000
      vertex -0.028284 0.028284 0.030000
    endloop
  endfacet
  facet normal -0.923880 -0.382683 0.000000
    outer loop
      vertex -0.040000 0.000000 -0.030000
      vertex -0.028284 -0.028284 -0.030000
      vertex -0.040000 0.000000 0.030000
    endloop
  endfacet
  facet normal -0.923880 -0.382683 0.000000
    outer loop
      vertex -0.028284 -0.028284 -0.030000
      vertex -0.028284 -0.028284 0.030000
      vertex -0.040000 0.000000 0.030000
    endloop
  endfacet
  facet normal -0.382683 -0.923880 0.000000
    outer loop
      vertex -0.028284 -0.028284 -0.030000
      vertex -0.000000 -0.040000 -0.030000
      vertex -0.028284 -0.028284 0.030000
    endloop
  endfacet
  facet normal -0.382683 -0.923880 0.000000
    outer loop
      vertex -0.000000 -0.040000 -0.030000
      vertex -0.000000 -0.040000 0.030000
      vertex -0.028284 -0.028284 0.030000
    endloop
  endfacet
  facet normal 0.382683 -0.923880 0.000000
    outer loop
      vertex -0.000000 -0.040000 -0.030000
      vertex 0.028284 -0.028284 -0.030000
      vertex -0.000000 -0.040000 0.030000
    endloop
  endfacet
  facet normal 0.382683 -0.923880 0.000000
    outer loop
      vertex 0.028284 -0.028284 -0.030000
      vertex 0.028284 -0.028284 0.030000
      vertex -0.000000 -0.040000 0.030000
    endloop
  endfacet
  facet normal 0.923880 -0.382683 0.000000
    outer loop
      vertex 0.028284 -0.028284 -0.030000
      vertex 0.040000 0.000000 -0.030000
      vertex 0.028284 -0.028284 0.030000
    endloop
  endfacet
  facet normal 0.923880 -0.382683 0.000000
    outer loop
      vertex 0.040000 0.000000 -0.030000
      vertex 0.040000 0.000000 0.030000
      vertex 0.028284 -0.028284 0.030000
    endloop
  endfacet
endsolid cylinder
