solid box
  facet normal 0.000000 0.000000 1.000000
    outer loop
      vertex -0.030000 -0.020000 -0.040000
      vertex 0.030000 -0.020000 -0.040000
      vertex 0.030000 0.020000 -0.040000
    endloop
  endfacet
  facet normal 0.000000 0.000000 1.000000
    outer loop
      vertex -0.030000 -0.020000 -0.040000
      vertex 0.030000 0.020000 -0.040000
      vertex -0.030000 0.020000 -0.040000
    endloop
  endfacet
  facet normal 0.000000 0.000000 -1.000000
    outer loop
      vertex -0.030000 -0.020000 0.040000
      vertex 0.030000 0.020000 0.040000
      vertex 0.030000 -0.020000 0.040000
    endloop
  endfacet
  facet normal 0.000000 0.000000 -1.000000
    outer loop
      vertex -0.030000 -0.020000 0.040000
      vertex -0.030000 0.020000 0.040000
      vertex 0.030000 0.020000 0.040000
    endloop
  endfacet
  facet normal 0.000000 1.000000 0.000000
    outer loop
      vertex -0.030000 -0.020000 -0.040000
      vertex -0.030000 -0.020000 0.040000
      vertex 0.030000 -0.020000 0.040000
    endloop
  endfacet
  facet normal 0.000000 1.000000 0.000000
    outer loop
      vertex -0.030000 -0.020000 -0.040000
      vertex 0.030000 -0.020000 0.040000
      vertex 0.030000 -0.020000 -0.040000
    endloop
  endfacet
  facet normal 0.000000 -1.000000 0.000000
    outer loop
      vertex 0.030000 0.020000 -0.040000
      vertex 0.030000 0.020000 0.040000
      vertex -0.030000 0.020000 0.040000
    endloop
  endfacet
  facet normal 0.000000 -1.000000 0.000000
    outer loop
      vertex 0.030000 0.020000 -0.040000
      vertex -0.030000 0.020000 0.040000
      vertex -0.030000 0.020000 -0.040000
    endloop
  endfacet
  facet normal 1.000000 0.000000 0.000000
    outer loop
      vertex -0.030000 -0.020000 -0.040000
      vertex -0.030000 0.020000 -0.040000
      vertex -0.030000 0.020000 0.040000
    endloop
  endfacet
  facet normal 1.000000 0.000000 0.000000
    outer loop
      vertex -0.030000 -0.020000 -0.040000
      vertex -0.030000 0.020000 0.040000
      vertex -0.030000 -0.020000 0.040000
    endloop
  endfacet
  facet normal -1.000000 0.000000 0.000000
    outer loop
      vertex 0.030000 -0.020000 -0.040000
      vertex 0.030000 -0.020000 0.040000
      vertex 0.030000 0.020000 0.040000
    endloop
  endfacet
  facet normal -1.000000 0.000000 0.000000
    outer loop
      vertex 0.030000 -0.020000 -0.040000
      vertex 0.030000 0.020000 0.040000
      vertex 0.030000 0.020000 -0.040000
    endloop
  endfacet
endsolid box
